# AST/ASF file generated using VICON BodyLanguage
# -----------------------------------------------
:version 1.10
:name VICON
:units
  mass 1.0
  length 0.45
  angle deg
:documentation
   .ast/.asf automatically generated from VICON data using
   VICON BodyBuilder and BodyLanguage model FoxedUp or BRILLIANT.MOD
:root
   order TX TY TZ RX RY RZ
   axis XYZ
   position 0 0 0  
   orientation 0 0 0 
:bonedata
  begin
     id 1 
     name lhipjoint
     direction 0.611804 -0.747784 0.257906 
     length 2.29243 
     axis 0 0 0  XYZ
  end
  begin
     id 2 
     name lfemur
     direction 0.34202 -0.939693 0  
     length 7.31159  
     axis 0 0 20  XYZ
    dof rx ry rz
    limits (-160.0 20.0)
           (-70.0 70.0)
           (-60.0 70.0)
  end
  begin
     id 3 
     name ltibia
     direction 0.34202 -0.939693 0   
     length 7.33391   
     axis 0 0 20   XYZ
    dof rx
    limits (-10.0 170.0)
  end
  begin
     id 4 
     name lfoot
     direction 0.122263 -0.335914 0.933924   
     length 1.76083   
     axis -90 7.62852e-016 20   XYZ
    dof rx rz
    limits (-45.0 90.0)
           (-70.0 20.0)
  end
  begin
     id 5 
     name ltoes
     direction 1.53533e-011 -4.2177e-011 1   
     length 0.879206   
     axis -90 7.62852e-016 20   XYZ
    dof rx
    limits (-90.0 20.0)
  end
  begin
     id 6 
     name rhipjoint
     direction -0.646469 -0.721248 0.248754   
     length 2.37677  
     axis 0 0 0  XYZ 
  end
  begin
     id 7 
     name rfemur
     direction -0.34202 -0.939693 0   
     length 7.18623   
     axis 0 0 -20   XYZ
    dof rx ry rz
    limits (-160.0 20.0)
           (-70.0 70.0)
           (-70.0 60.0)
  end
  begin
     id 8 
     name rtibia
     direction -0.34202 -0.939693 0   
     length 7.36567   
     axis 0 0 -20   XYZ
    dof rx
    limits (-10.0 170.0)
 end
 begin
     id 9 
     name rfoot
     direction -0.126681 -0.348054 0.928876   
     length 1.71902  
     axis -90 -7.62852e-016 -20   XYZ
    dof rx rz
    limits (-45.0 90.0)
           (-20.0 70.0)
  end
  begin
     id 10 
     name rtoes
     direction -1.53551e-011 -4.21898e-011 1   
     length 0.857792   
     axis -90 -7.62852e-016 -20   XYZ
    dof rx
    limits (-90.0 20.0)
  end
  begin
     id 11 
     name lowerback
     direction 0.0106509 0.999778 0.0181844   
     length 2.07668   
     axis 0 0 0   XYZ
    dof rx ry rz
    limits (-20.0 45.0)
           (-30.0 30.0)
           (-30.0 30.0)
  end
  begin
     id 12 
     name upperback
     direction -0.00456018 0.999989 -0.000590935   
     length 2.08011   
     axis 0 0 0   XYZ
    dof rx ry rz
    limits (-20.0 45.0)
           (-30.0 30.0)
           (-30.0 30.0)
  end
  begin
     id 13 
     name thorax
     direction -0.00910382 0.999916 -0.00923765   
     length 2.07397   
     axis 0 0 0   XYZ
    dof rx ry rz
    limits (-20.0 45.0)
           (-30.0 30.0)
           (-30.0 30.0)
  end
  begin
     id 14 
     name lowerneck
     direction 0.00171967 0.99778 0.0665733   
     length 1.67556   
     axis 0 0 0   XYZ
    dof rx ry rz
    limits (-20.0 45.0)
           (-30.0 30.0)
           (-30.0 30.0)
  end
  begin
     id 15 
     name upperneck
     direction -0.0143166 0.991302 -0.130828   
     length 1.68462   
     axis 0 0 0   XYZ
    dof rx ry rz
    limits (-20.0 45.0)
           (-30.0 30.0)
           (-30.0 30.0)
  end
  begin
     id 16
     name head
     direction -0.00606378 0.998665 -0.0512995  
     length 1.69269  
     axis 0 0 0   XYZ
    dof rx ry rz
    limits (-20.0 45.0)
           (-30.0 30.0)
           (-30.0 30.0)
  end
  begin
     id 17 
     name lclavicle
     direction 0.9638 0.179341 0.197297  
     length 4.12888  
     axis 0 0 0   XYZ
    dof ry rz
    limits (-20.0 10.0)
           (0.0 20.0)
  end
  begin
     id 18 
     name lhumerus
     direction 1 -4.48972e-011 -2.47351e-027   
     length 5.01834   
     axis -180 -30 -90   XYZ
    dof rx ry rz
    limits (-60.0 90.0)
           (-90.0 90.0)
           (-90.0 90.0)
  end
  begin
     id 19
     name lradius
     direction 1 -4.48965e-011 1.51591e-026   
     length 3.4869   
     axis -180 -30 -90   XYZ
    dof rx
    limits (-10.0 170.0)
  end
  begin
     id 20
     name lwrist
     direction 1 -4.48957e-011 2.70032e-026   
     length 1.74345   
     axis -1.81515e-014 90 90   XYZ
    dof ry
    limits (-180.0 0.0)
 end
  begin
     id 21 
     name lhand
     direction 1 -4.48951e-011 5.40064e-026   
     length 0.76799   
     axis -3.44607e-014 90 90   XYZ
    dof rx rz
    limits (-90.0 90.0)
           (-45.0 45.0)
  end
  begin
     id 22 
     name lfingers
     direction 1 -4.48971e-011 1.08013e-025   
     length 0.619174   
     axis -6.89214e-014 90 90   XYZ
    dof rx
    limits (0.0 90.0)
  end
  begin
     id 23
     name lthumb
     direction 0.707107 -6.34931e-011 0.707107   
     length 0.889013   
     axis -90 45 2.85299e-015   XYZ
    dof rx rz
    limits (-45.0 45.0)
           (-45.0 45.0)
  end
  begin
     id 24 
     name rclavicle
     direction -0.961409 0.252588 0.109054   
     length 4.04305  
     axis 0 0 0   XYZ 
    dof ry rz
    limits (-10.0 20.0)
           (-20.0 0.0)
  end
  begin
     id 25 
     name rhumerus
     direction -1 -4.4897e-011 1.33872e-017  
     length 4.70164   
     axis -180 30 90   XYZ
    dof rx ry rz
    limits (-90.0 60.0)
           (-90.0 90.0)
           (-90.0 90.0)
  end
  begin
     id 26 
     name rradius
     direction -1 -4.48954e-011 1.83844e-026   
     length 3.49911   
     axis -180 30 90   XYZ
    dof rx
    limits (-10.0 170.0)
  end
  begin
     id 27 
     name rwrist
     direction -1 -4.49008e-011 2.70032e-026   
     length 1.74955   
     axis -1.81515e-014 -90 -90   XYZ
    dof ry
    limits (-180.0 0.0)
  end
  begin
     id 28
     name rhand
     direction -1 -4.48916e-011 5.40064e-026   
     length 0.739335   
     axis -3.44607e-014 -90 -90   XYZ
    dof rx rz
    limits (-90.0 90.0)
           (-45.0 45.0)
  end
  begin
     id 29
     name rfingers
     direction -1 -4.48987e-011 1.08013e-025   
     length 0.596071   
     axis -6.89214e-014 -90 -90   XYZ
    dof rx
    limits (0.0 90.0)
  end
  begin
     id 30
     name rthumb
     direction -0.707107 -6.34935e-011 0.707107   
     length 0.855843   
     axis -90 -45 -2.85299e-015   XYZ
    dof rx rz
    limits (-45.0 45.0)
           (-45.0 45.0)
  end
:hierarchy
  begin
    root lhipjoint rhipjoint lowerback
    lhipjoint lfemur
    lfemur ltibia
    ltibia lfoot
    lfoot ltoes
    rhipjoint rfemur
    rfemur rtibia
    rtibia rfoot
    rfoot rtoes
    lowerback upperback
    upperback thorax
    thorax lowerneck lclavicle rclavicle
    lowerneck upperneck
    upperneck head
    lclavicle lhumerus
    lhumerus lradius
    lradius lwrist
    lwrist lhand lthumb
    lhand lfingers
    rclavicle rhumerus
    rhumerus rradius
    rradius rwrist
    rwrist rhand rthumb
    rhand rfingers
  end

#!OML:ASF I:\salsa\salsa 7_09\Patient 1\Session 1\dancermale.ASF
:FULLY-SPECIFIED
:DEGREES
167
root 8.32638 16.833 -0.953416 173.588 95.0716 170.526
lowerback -4.05607 -1.57545 1.41459
upperback 0.857771 -2.17879 0.1416
thorax 3.10855 -1.05996 -0.791661
lowerneck -13.0886 -7.56129 2.19355
upperneck 11.2226 53.4696 7.87933
head 30.7611 39.6653 -183.653
rclavicle -1.9842e-014 1.68967e-015
rhumerus -47.9845 9.57114 -96.9612
rradius 102.589
rwrist -18.0457
rhand -28.8845 -15.2107
rfingers 7.12502
rthumb -2.24016 -45.1787
lclavicle -1.9842e-014 1.68967e-015
lhumerus -20.3715 -4.12605 72.1108
lradius 62.7737
lwrist 57.6039
lhand -20.3766 55.5496
lfingers 7.12502
lthumb 5.9762 805.445
rfemur -15.5268 1.64013 25.9127
rtibia 36.2999
rfoot -24.1108 -13.7023
rtoes 5.09069
lfemur -40.57 20.6039 -17.5528
ltibia 50.2072
lfoot 3.32932 6.45406
ltoes 18.2365
168
root 8.47039 16.8307 -1.00789 175.734 94.9615 172.721
lowerback -4.35537 -1.46271 1.39077
upperback 0.877436 -2.03403 0.193473
thorax 3.30338 -0.986832 -0.724917
lowerneck -12.9771 -7.72115 1.80057
upperneck 11.0054 53.0063 7.62537
head 30.5412 39.5867 -183.652
rclavicle -9.16428e-015 3.8266e-015
rhumerus -49.3612 10.1466 -97.1331
rradius 100.805
rwrist -18.5057
rhand -29.8948 -13.969
rfingers 7.12502
rthumb -3.21582 -43.9245
lclavicle -9.16428e-015 3.8266e-015
lhumerus -19.9638 -3.59846 71.4785
lradius 63.2178
lwrist 56.2703
lhand -19.8362 55.6181
lfingers 7.12502
lthumb 6.49792 805.498
rfemur -15.2653 1.54613 25.3989
rtibia 36.9368
rfoot -24.6282 -13.7827
rtoes 3.80179
lfemur -39.474 20.3743 -17.9535
ltibia 49.7572
lfoot 1.53878 7.16323
ltoes 12.3489
169
root 8.59755 16.8277 -1.05659 178.823 94.7147 175.918
lowerback -4.37334 -1.34638 0.991633
upperback 0.82277 -1.86064 0.331295
thorax 3.27785 -0.90988 -0.347396
lowerneck -12.8062 -7.95316 1.35246
upperneck 10.7318 52.3127 7.32587
head 30.2052 39.3555 -183.741
rclavicle -2.85939e-014 -7.95139e-016
rhumerus -50.614 10.5807 -97.0668
rradius 98.7864
rwrist -19.1319
rhand -31.5067 -12.9592
rfingers 7.12502
rthumb -4.77241 -42.8854
lclavicle -2.85939e-014 -7.95139e-016
lhumerus -19.5115 -3.08223 71.2558
lradius 63.5035
lwrist 54.8694
lhand -19.3945 55.7843
lfingers 7.12502
lthumb 6.92431 805.651
rfemur -15.1073 1.49433 24.8465
rtibia 37.7887
rfoot -24.9057 -13.9709
rtoes 2.92046
lfemur -38.1044 19.6922 -18.2585
ltibia 48.9559
lfoot 0.101828 7.52757
ltoes 5.88272
170
root 8.72274 16.8225 -1.09994 181.887 94.3239 179.084
lowerback -4.48837 -1.24827 0.728438
upperback 0.766992 -1.7168 0.359447
thorax 3.29528 -0.843579 -0.163022
lowerneck -12.5957 -8.20856 1.04352
upperneck 10.6241 51.818 7.20749
head 30.028 39.401 -183.768
rclavicle -1.08524e-014 3.18055e-015
rhumerus -51.7371 10.7768 -97.1546
rradius 96.6573
rwrist -19.5758
rhand -33.4531 -12.4035
rfingers 7.12502
rthumb -6.65161 -42.279
lclavicle -1.08524e-014 3.18055e-015
lhumerus -19.0525 -2.77479 71.1339
lradius 63.6081
lwrist 53.4769
lhand -19.1915 55.6383
lfingers 7.12502
lthumb 7.12034 805.499
rfemur -15.1321 1.43109 24.4079
rtibia 38.9404
rfoot -24.8478 -14.5294
rtoes 1.57265
lfemur -36.4148 18.3646 -18.2965
ltibia 47.5204
lfoot -1.64958 7.38999
ltoes 0.0278674
171
root 8.82664 16.8213 -1.16226 187.85 94.0324 184.937
lowerback -4.65486 -1.11715 0.688745
upperback 0.649892 -1.53663 0.242401
thorax 3.26717 -0.753875 -0.25033
lowerneck -12.4885 -8.45758 0.842792
upperneck 10.5844 51.6204 7.13638
head 30.0725 39.6522 -183.592
rclavicle 1.68097e-014 3.97569e-016
rhumerus -52.6402 10.7696 -97.3179
rradius 94.6502
rwrist -20.1888
rhand -34.8565 -11.7589
rfingers 7.12502
rthumb -8.00627 -41.5872
lclavicle 1.68097e-014 3.97569e-016
lhumerus -18.5391 -2.40376 71.1914
lradius 63.5745
lwrist 52.2275
lhand -19.0826 55.3952
lfingers 7.12502
lthumb 7.2254 805.252
rfemur -15.8584 1.20597 23.7174
rtibia 40.8234
rfoot -24.4998 -14.9851
rtoes -0.0799057
lfemur -34.7934 16.499 -18.5721
ltibia 45.6223
lfoot -3.08256 7.55921
ltoes -3.1578
172
root 8.91135 16.8202 -1.2272 193.543 93.8317 190.389
lowerback -4.78199 -0.96411 0.761682
upperback 0.47155 -1.33288 0.135245
thorax 3.15214 -0.650925 -0.386836
lowerneck -12.4335 -8.66886 0.669687
upperneck 10.5938 51.5361 7.12281
head 30.1472 39.9706 -183.473
rclavicle -2.05556e-014 -4.57205e-015
rhumerus -53.3608 10.4671 -97.4508
rradius 92.8828
rwrist -21.0001
rhand -35.6418 -11.131
rfingers 7.12502
rthumb -8.76411 -40.9291
lclavicle -2.05556e-014 -4.57205e-015
lhumerus -18.0626 -1.98549 71.4752
lradius 63.4486
lwrist 51.1087
lhand -19.0944 55.1318
lfingers 7.12502
lthumb 7.21403 804.989
rfemur -17.1536 1.05244 23.0853
rtibia 43.3423
rfoot -23.9951 -15.1376
rtoes -0.43083
lfemur -33.4399 14.5713 -18.8489
ltibia 43.6739
lfoot -4.06554 7.91761
ltoes -6.73449
173
root 8.9708 16.8132 -1.28919 201.485 93.3804 198.236
lowerback -4.5227 -0.919313 0.854044
upperback 0.272281 -1.26947 -0.0234785
thorax 2.79613 -0.618952 -0.589983
lowerneck -12.3346 -8.82444 0.469998
upperneck 10.7125 51.5286 7.23641
head 30.173 40.3972 -183.555
rclavicle 1.31012e-014 -4.96962e-015
rhumerus -53.8166 9.76473 -97.4873
rradius 91.2492
rwrist -21.6605
rhand -36.2481 -11.0419
rfingers 7.12502
rthumb -9.34918 -40.8145
lclavicle 1.31012e-014 -4.96962e-015
lhumerus -17.6297 -1.69485 71.8713
lradius 63.2138
lwrist 50.1242
lhand -19.2556 54.4831
lfingers 7.12502
lthumb 7.05844 804.345
rfemur -18.5233 0.719783 22.4132
rtibia 46.0949
rfoot -23.2968 -14.9882
rtoes 0.251727
lfemur -32.7803 13.5424 -19.3858
ltibia 42.5728
lfoot -4.9956 7.81789
ltoes -8.63382
174
root 9.00289 16.809 -1.34583 207.657 93.4058 204.809
lowerback -3.47077 -0.766401 0.773213
upperback 0.144337 -1.05026 -0.100831
thorax 2.07751 -0.514741 -0.591437
lowerneck -12.2987 -8.98337 0.133427
upperneck 10.5962 51.2556 7.09062
head 30.0551 40.4884 -183.586
rclavicle 2.00586e-014 -9.93923e-016
rhumerus -53.9034 8.85219 -97.1927
rradius 89.4942
rwrist -22.2267
rhand -36.6835 -10.6893
rfingers 7.12502
rthumb -9.76925 -40.4427
lclavicle 2.00586e-014 -9.93923e-016
lhumerus -17.286 -1.33388 72.5171
lradius 62.8668
lwrist 49.0854
lhand -19.4197 53.7616
lfingers 7.12502
lthumb 6.90006 803.629
rfemur -19.6208 0.879249 21.7076
rtibia 49.0792
rfoot -22.2485 -14.4526
rtoes 1.03102
lfemur -31.6314 13.0876 -19.8555
ltibia 41.4369
lfoot -5.7271 8.08603
ltoes -8.58187
175
root 9.03319 16.8093 -1.38525 218.957 93.1877 216.091
lowerback -2.95153 -0.782691 0.068916
upperback -0.0887143 -1.04626 0.143727
thorax 1.56448 -0.521692 0.0641563
lowerneck -12.2398 -9.02965 -0.465837
upperneck 10.6555 51.4035 7.03245
head 29.9912 40.866 -183.714
rclavicle -3.97569e-016 -6.75868e-015
rhumerus -53.7147 8.0692 -96.3303
rradius 87.6196
rwrist -22.8253
rhand -37.2119 -9.84582
rfingers 7.12502
rthumb -10.279 -39.5746
lclavicle -3.97569e-016 -6.75868e-015
lhumerus -17.1309 -0.517084 73.7435
lradius 62.5298
lwrist 47.6492
lhand -19.1971 53.2886
lfingers 7.12502
lthumb 7.11487 803.149
rfemur -21.1782 0.983917 20.9316
rtibia 52.0711
rfoot -20.8828 -13.9619
rtoes 1.0992
lfemur -31.1137 12.7592 -20.5673
ltibia 40.4349
lfoot -6.11072 7.82345
ltoes -9.53368
176
root 9.05832 16.8153 -1.41419 236.134 92.5899 233.283
lowerback -2.62681 -0.886682 0.0503543
upperback -0.212193 -1.18312 0.125768
thorax 1.25614 -0.59021 0.0572148
lowerneck -12.1886 -9.19357 -0.71499
upperneck 10.7554 51.5119 7.0863
head 30.1026 41.3311 -183.659
rclavicle -4.66523e-015 4.37326e-015
rhumerus -53.2422 6.7986 -95.7661
rradius 85.958
rwrist -23.0882
rhand -38.1136 -9.31249
rfingers 7.12502
rthumb -11.1488 -38.9963
lclavicle -4.66523e-015 4.37326e-015
lhumerus -16.8277 -0.0326047 74.6797
lradius 62.3602
lwrist 46.0905
lhand -18.6718 53.1347
lfingers 7.12502
lthumb 7.62199 802.977
rfemur -22.5261 0.863363 20.4681
rtibia 54.8212
rfoot -19.6472 -13.4677
rtoes 0.275904
lfemur -30.6436 12.4421 -20.9812
ltibia 39.5417
lfoot -6.34535 6.84767
ltoes -11.4847
177
root 9.07633 16.8176 -1.43266 265.479 92.1807 262.855
lowerback -2.16626 -1.02824 0.433708
upperback -0.270335 -1.37826 -0.0977911
thorax 0.924258 -0.686366 -0.383241
lowerneck -12.0505 -9.45503 -0.779328
upperneck 10.8388 51.422 7.16804
head 30.2179 41.6746 -183.55
rclavicle 1.06909e-014 -1.59028e-015
rhumerus -52.8693 5.23381 -95.4511
rradius 84.8595
rwrist -22.9349
rhand -39.1735 -8.80905
rfingers 7.12502
rthumb -12.1709 -38.435
lclavicle 1.06909e-014 -1.59028e-015
lhumerus -16.5441 -0.0549516 75.3837
lradius 62.3532
lwrist 44.9103
lhand -18.3626 52.9822
lfingers 7.12502
lthumb 7.92033 802.814
rfemur -23.4395 0.615994 20.1444
rtibia 57.2848
rfoot -18.8787 -12.9029
rtoes -0.269871
lfemur -30.0102 12.0857 -21.1736
ltibia 38.8212
lfoot -6.80475 5.61517
ltoes -12.7885
178
root 9.08438 16.8093 -1.44796 297.554 92.4147 295.259
lowerback -1.63368 -1.15737 0.906789
upperback -0.271575 -1.55538 -0.308759
thorax 0.604549 -0.775011 -0.856576
lowerneck -11.9347 -9.71388 -0.90715
upperneck 10.8489 51.172 7.1951
head 30.2086 41.9011 -183.57
rclavicle 1.59649e-015 -8.34896e-015
rhumerus -52.6106 3.73687 -95.0496
rradius 84.2612
rwrist -22.7762
rhand -40.0182 -7.78221
rfingers 7.12502
rthumb -12.9853 -37.3581
lclavicle 1.59649e-015 -8.34896e-015
lhumerus -16.2484 -0.264691 76.2282
lradius 62.3896
lwrist 43.9454
lhand -18.1566 52.7135
lfingers 7.12502
lthumb 8.11923 802.538
rfemur -24.0171 0.399945 19.89
rtibia 59.5615
rfoot -18.5078 -12.3455
rtoes -0.0922439
lfemur -29.3816 11.5809 -21.2513
ltibia 38.2976
lfoot -7.27617 4.51664
ltoes -13.6968
179
root 9.08074 16.7935 -1.44979 320.842 93.4019 318.991
lowerback -1.00715 -1.35557 1.13136
upperback -0.22578 -1.81683 -0.436935
thorax 0.283777 -0.907488 -1.10241
lowerneck -11.832 -10.0003 -1.09214
upperneck 10.7472 50.7498 7.10159
head 30.1034 41.9007 -183.611
rclavicle 3.78312e-015 -2.38542e-015
rhumerus -52.3582 2.21378 -94.1274
rradius 83.8672
rwrist -21.4464
rhand -39.7094 -8.38479
rfingers 7.12502
rthumb -12.6877 -37.9794
lclavicle 3.78312e-015 -2.38542e-015
lhumerus -15.9886 -0.445838 77.3326
lradius 62.4553
lwrist 42.7988
lhand -17.9286 52.5437
lfingers 7.12502
lthumb 8.33924 802.359
rfemur -24.2439 0.224909 19.6111
rtibia 61.692
rfoot -18.1983 -11.8503
rtoes -0.38609
lfemur -28.8976 10.722 -21.3605
ltibia 38.0368
lfoot -7.50678 3.62659
ltoes -14.6784
180
root 9.06891 16.7853 -1.44328 334.862 94.7789 333.044
lowerback -0.892113 -1.59284 1.38507
upperback -0.263087 -2.13409 -0.463198
thorax 0.162175 -1.06724 -1.27003
lowerneck -11.7401 -10.3415 -1.27831
upperneck 10.5263 50.1924 6.85437
head 29.9659 41.5663 -183.55
rclavicle 5.14355e-015 -2.38542e-015
rhumerus -52.2391 1.07306 -93.1192
rradius 83.7328
rwrist -21.3158
rhand -39.6053 -8.10895
rfingers 7.12502
rthumb -12.5872 -37.7097
lclavicle 5.14355e-015 -2.38542e-015
lhumerus -15.8603 -0.580037 78.6027
lradius 62.5754
lwrist 41.6246
lhand -17.7341 52.3871
lfingers 7.12502
lthumb 8.52698 802.195
rfemur -24.7419 0.271412 19.4194
rtibia 63.7686
rfoot -17.7485 -10.9631
rtoes -1.69553
lfemur -29.0937 9.62021 -21.4409
ltibia 38.0062
lfoot -7.53904 2.83092
ltoes -15.211
